<?xml version="1.0" encoding="UTF-8"?>
<svg xmlns="http://www.w3.org/2000/svg" xmlns:xlink="http://www.w3.org/1999/xlink" width="16pt" height="16pt" viewBox="0 0 16 16" version="1.1">
<g id="surface1">
<path style=" stroke:none;fill-rule:nonzero;fill:rgb(0%,58.431373%,86.666667%);fill-opacity:1;" d="M 4.433594 12.234375 C 4.410156 12.234375 4.382812 12.234375 4.359375 12.226562 C 4.203125 12.183594 4.109375 12.023438 4.152344 11.867188 C 4.636719 10.058594 4.542969 5.214844 4.542969 5.164062 C 4.539062 5.003906 4.667969 4.871094 4.828125 4.867188 C 4.832031 4.867188 4.832031 4.867188 4.835938 4.867188 C 4.996094 4.867188 5.125 4.992188 5.128906 5.152344 C 5.132812 5.355469 5.222656 10.128906 4.71875 12.019531 C 4.683594 12.148438 4.5625 12.234375 4.433594 12.234375 Z M 4.433594 12.234375 "/>
<path style=" stroke:none;fill-rule:nonzero;fill:rgb(46.27451%,34.509804%,69.411765%);fill-opacity:1;" d="M 8.664062 8.589844 C 8.074219 8.589844 7.578125 8.34375 7.542969 8.328125 C 7.398438 8.257812 7.339844 8.082031 7.414062 7.9375 C 7.484375 7.792969 7.660156 7.730469 7.804688 7.804688 C 7.824219 7.8125 8.730469 8.246094 9.339844 7.796875 C 9.46875 7.699219 9.652344 7.730469 9.75 7.859375 C 9.84375 7.988281 9.816406 8.171875 9.6875 8.269531 C 9.359375 8.511719 8.996094 8.589844 8.664062 8.589844 Z M 8.664062 8.589844 "/>
<path style=" stroke:none;fill-rule:nonzero;fill:rgb(100%,54.117647%,7.058824%);fill-opacity:1;" d="M 9.824219 11.433594 C 9.589844 11.433594 9.324219 11.417969 9.027344 11.398438 C 8.867188 11.390625 8.742188 11.25 8.753906 11.089844 C 8.761719 10.925781 8.898438 10.804688 9.0625 10.816406 C 9.679688 10.851562 10.375 10.894531 10.542969 10.691406 C 10.664062 10.542969 10.640625 10.132812 10.464844 9.476562 C 10.039062 7.871094 10.410156 7.328125 10.789062 6.945312 C 10.816406 6.921875 10.839844 6.894531 10.863281 6.871094 C 11.117188 6.578125 11.949219 6.125 12.113281 6.039062 C 12.257812 5.960938 12.433594 6.015625 12.511719 6.15625 C 12.585938 6.300781 12.535156 6.476562 12.390625 6.554688 C 12.023438 6.753906 11.441406 7.101562 11.304688 7.257812 C 11.273438 7.289062 11.242188 7.324219 11.207031 7.359375 C 10.988281 7.578125 10.660156 7.910156 11.03125 9.328125 C 11.273438 10.234375 11.261719 10.738281 10.996094 11.0625 C 10.757812 11.355469 10.375 11.433594 9.824219 11.433594 Z M 9.824219 11.433594 "/>
<path style=" stroke:none;fill-rule:nonzero;fill:rgb(85.882353%,0%,7.058824%);fill-opacity:1;" d="M 9.242188 15.679688 C 8.519531 15.679688 7.808594 15.359375 7.308594 14.773438 C 6.140625 13.394531 5.285156 13.40625 5.277344 13.40625 C 5.113281 13.414062 4.980469 13.285156 4.972656 13.125 C 4.964844 12.96875 5.082031 12.832031 5.242188 12.820312 C 5.355469 12.8125 6.398438 12.789062 7.757812 14.394531 C 8.273438 15 9.046875 15.238281 9.78125 15.015625 C 11.210938 14.574219 12.21875 12.542969 12.554688 9.4375 C 12.851562 6.695312 13.023438 3.890625 11.667969 2.378906 C 10.863281 1.480469 9.546875 1.042969 7.648438 1.042969 C 3.574219 1.042969 2.734375 3.699219 2.5625 4.84375 C 2.304688 6.5625 2.964844 8.34375 3.976562 8.65625 C 4.132812 8.703125 4.21875 8.867188 4.171875 9.023438 C 4.125 9.175781 3.960938 9.261719 3.804688 9.214844 C 2.511719 8.820312 1.675781 6.777344 1.980469 4.753906 C 2.386719 2.0625 4.503906 0.457031 7.648438 0.457031 C 9.722656 0.457031 11.179688 0.957031 12.105469 1.988281 C 13.621094 3.675781 13.449219 6.625 13.136719 9.5 C 12.644531 14.085938 10.929688 15.273438 9.953125 15.574219 C 9.71875 15.648438 9.480469 15.679688 9.242188 15.679688 Z M 9.242188 15.679688 "/>
</g>
</svg>
